HIERARCHY
ROOT Hips
{
	OFFSET 0.00000 0.00000 0.00000
	CHANNELS 6 Xposition Yposition Zposition Zrotation Yrotation Xrotation 
	JOINT LHipJoint
	{
		OFFSET 0 0 0
		CHANNELS 3 Zrotation Yrotation Xrotation
		JOINT LeftUpLeg
		{
			OFFSET 1.41496 -1.84582 0.78394
			CHANNELS 3 Zrotation Yrotation Xrotation
			JOINT LeftLeg
			{
				OFFSET 2.58040 -7.08960 0.00000
				CHANNELS 3 Zrotation Yrotation Xrotation
				JOINT LeftFoot
				{
					OFFSET 2.64719 -7.27309 0.00000
					CHANNELS 3 Zrotation Yrotation Xrotation
					JOINT LeftToeBase
					{
						OFFSET 0.20718 -0.56921 2.20259
						CHANNELS 3 Zrotation Yrotation Xrotation
						End Site
						{
							OFFSET 0.00000 -0.00000 1.14243
						}
					}
				}
			}
		}
	}
	JOINT RHipJoint
	{
		OFFSET 0 0 0
		CHANNELS 3 Zrotation Yrotation Xrotation
		JOINT RightUpLeg
		{
			OFFSET -1.40551 -1.84582 0.78394
			CHANNELS 3 Zrotation Yrotation Xrotation
			JOINT RightLeg
			{
				OFFSET -2.56572 -7.04926 0.00000
				CHANNELS 3 Zrotation Yrotation Xrotation
				JOINT RightFoot
				{
					OFFSET -2.57974 -7.08778 0.00000
					CHANNELS 3 Zrotation Yrotation Xrotation
					JOINT RightToeBase
					{
						OFFSET -0.26704 -0.73369 2.20815
						CHANNELS 3 Zrotation Yrotation Xrotation
						End Site
						{
							OFFSET -0.00000 -0.00000 1.16246
						}
					}
				}
			}
		}
	}
	JOINT LowerBack
	{
		OFFSET 0 0 0
		CHANNELS 3 Zrotation Yrotation Xrotation
		JOINT Spine
		{
			OFFSET -0.04690 2.05196 -0.07017
			CHANNELS 3 Zrotation Yrotation Xrotation
			JOINT Spine1
			{
				OFFSET 0.04085 2.05260 0.00800
				CHANNELS 3 Zrotation Yrotation Xrotation
				JOINT Neck
				{
					OFFSET 0 0 0
					CHANNELS 3 Zrotation Yrotation Xrotation
					JOINT Neck1
					{
						OFFSET -0.03582 1.80995 0.19301
						CHANNELS 3 Zrotation Yrotation Xrotation
						JOINT Head
						{
							OFFSET 0.00952 1.80195 -0.36389
							CHANNELS 3 Zrotation Yrotation Xrotation
							End Site
							{
								OFFSET 0.00392 1.85062 -0.14494
							}
						}
					}
				}
				JOINT LeftShoulder
				{
					OFFSET 0 0 0
					CHANNELS 3 Zrotation Yrotation Xrotation
					JOINT LeftArm
					{
						OFFSET 3.55224 1.39726 -0.13667
						CHANNELS 3 Zrotation Yrotation Xrotation
						JOINT LeftForeArm
						{
							OFFSET 5.14507 -0.00000 -0.00000
							CHANNELS 3 Zrotation Yrotation Xrotation
							JOINT LeftHand
							{
								OFFSET 3.50646 -0.00000 0.00000
								CHANNELS 3 Zrotation Yrotation Xrotation
								JOINT LeftFingerBase
								{
									OFFSET 0 0 0
									CHANNELS 3 Zrotation Yrotation Xrotation
									JOINT LeftHandIndex1
									{
										OFFSET 0.62997 -0.00000 0.00000
										CHANNELS 3 Zrotation Yrotation Xrotation
										End Site
										{
											OFFSET 0.50790 -0.00000 0.00000
										}
									}
								}
								JOINT LThumb
								{
									OFFSET 0 0 0
									CHANNELS 3 Zrotation Yrotation Xrotation
									End Site
									{
										OFFSET 0.51565 -0.00000 0.51565
									}
								}
							}
						}
					}
				}
				JOINT RightShoulder
				{
					OFFSET 0 0 0
					CHANNELS 3 Zrotation Yrotation Xrotation
					JOINT RightArm
					{
						OFFSET -3.06467 1.61290 -0.28813
						CHANNELS 3 Zrotation Yrotation Xrotation
						JOINT RightForeArm
						{
							OFFSET -5.23200 -0.00000 -0.00000
							CHANNELS 3 Zrotation Yrotation Xrotation
							JOINT RightHand
							{
								OFFSET -3.65641 -0.00000 0.00000
								CHANNELS 3 Zrotation Yrotation Xrotation
								JOINT RightFingerBase
								{
									OFFSET 0 0 0
									CHANNELS 3 Zrotation Yrotation Xrotation
									JOINT RightHandIndex1
									{
										OFFSET -0.65681 -0.00000 0.00000
										CHANNELS 3 Zrotation Yrotation Xrotation
										End Site
										{
											OFFSET -0.52953 -0.00000 0.00000
										}
									}
								}
								JOINT RThumb
								{
									OFFSET 0 0 0
									CHANNELS 3 Zrotation Yrotation Xrotation
									End Site
									{
										OFFSET -0.53762 -0.00000 0.53762
									}
								}
							}
						}
					}
				}
			}
		}
	}
}
MOTION
Frames: 15
Frame Time: 0.0540541
0.00 0.00 0.00 0 0 0 0 0 0 -21 0 0 0 0 0 0 0 0 0 0 0 0 0 0 21 0 0 0 0 0 0 0 0 0 0 0 0 0 0 0 0 0 0 0 0 0 0 -16 0 0 21 0 0 11 0 0 0 -8 0 0 0 0 0 0 0 0 0 0 0 0 0 0 0 0 0 0 0 0 8 0 0 0 0 0 0 0 0 0 0 0 0 0 0 0 0 0
0.00 0.00 0.00 -8.8399 -3.6952 24.2223 0.0000 0.0000 0.0000 -11.1272 -8.6022 -76.7044 9.6777 17.2246 58.4057 -0.8413 -17.5164 -1.1776 0.0009 0.1893 0.5202 0.0000 0.0000 0.0000 23.6974 -0.7528 6.5999 -4.1615 -12.3723 37.0620 -0.3168 -17.3800 15.0490 -2.9003 10.5319 -30.7169 4.9715 3.7210 16.0217 1.4719 5.8961 1.1395 -2.5064 2.7034 -7.3971 -2.1742 -3.1974 -19.2410 1.4250 -3.8914 5.7501 0.4234 -1.8629 4.8666 -0.0000 0.0000 0.0000 -85.6796 49.9011 29.1885 91.8080 -59.9876 -61.5657 -0.0000 0.0000 -20.3383 24.2923 -9.9606 -4.4641 -7.1250 0.0000 -0.0000 -1.9233 19.0771 1.1897 -0.0000 0.0000 0.0000 78.6656 7.5116 42.4515 -111.9252 58.1033 -78.8668 0.0000 -0.0000 -7.5146 -27.7346 -0.5817 0.3058 7.1250 -0.0000 -0.0000 -0.9270 -30.6362 -0.3253
0.00 0.00 0.00 -5.0753 -1.3403 23.0256 0.0000 0.0000 0.0000 -17.0186 -10.9463 -70.0135 11.4922 18.1676 64.3699 -0.1515 -17.4206 -10.7437 0.9118 6.0847 17.0303 0.0000 0.0000 0.0000 20.1295 -2.6793 -4.8151 -8.9552 -16.7788 55.9352 0.4450 -16.1069 5.9115 -2.5159 9.8668 -28.5466 2.3346 2.9902 17.4091 0.4513 4.4227 1.0976 -1.9027 2.0355 -8.4284 -2.2125 -3.6046 -18.5838 2.4265 -4.5212 4.3470 0.7053 -2.1144 4.3618 0.0000 -0.0000 0.0000 -89.3566 38.7180 27.5291 81.2623 -59.7095 -52.4403 -0.0000 0.0000 -18.4382 26.4717 -9.0479 -4.4777 -7.1250 0.0000 -0.0000 -0.3252 19.8928 0.1952 0.0000 -0.0000 0.0000 83.6455 1.8303 38.4839 -89.8050 59.9999 -59.8311 0.0000 -0.0000 -11.3821 -28.9413 -1.5639 0.8646 7.1250 -0.0000 -0.0000 -1.8990 -31.7631 -0.6152
0.00 0.00 0.00 -0.3558 0.1832 21.9905 0.0000 0.0000 0.0000 -23.2629 -13.5776 -61.8955 12.7801 18.7013 68.4410 1.0870 -14.9450 -19.9925 1.4763 7.6774 21.7384 0.0000 0.0000 0.0000 14.0307 -3.7083 -17.9524 -14.5663 -19.2769 73.9268 0.5314 -12.7943 -4.3540 -2.2998 9.4644 -27.2592 -1.4402 2.4124 18.9980 -0.5363 2.8055 1.1403 -0.5140 1.3774 -9.4610 -2.3240 -3.7202 -17.6893 2.7884 -4.6687 2.7783 0.8505 -2.1839 3.7527 0.0000 -0.0000 0.0000 -92.5531 25.4655 27.4940 68.6753 -58.2100 -41.6433 -0.0000 0.0000 -19.6408 29.2812 -9.2342 -5.1417 -7.1250 0.0000 -0.0000 1.6659 19.4239 -1.0175 0.0000 -0.0000 0.0000 87.4329 -3.4024 33.0981 -68.9602 58.2594 -41.8855 0.0000 -0.0000 -17.3291 -30.4480 -2.3533 1.3827 7.1250 -0.0000 -0.0000 -3.1274 -32.6982 -0.9435
0.00 0.00 0.00 2.7529 0.5064 21.9966 0.0000 0.0000 0.0000 -28.7213 -14.7523 -49.6450 13.6173 18.9938 71.0323 3.2210 -14.9413 -32.6156 1.5327 7.8161 22.1570 0.0000 0.0000 0.0000 6.3284 -0.9454 -42.4282 -20.9839 -19.9768 92.8779 -0.0881 -9.9124 -15.4820 -2.6052 10.0267 -29.0633 -3.6797 1.6850 19.7641 -1.0304 1.2703 0.4757 0.6013 0.7534 -10.6553 -2.7139 -3.4208 -18.1696 3.3096 -4.2235 3.1191 1.1021 -1.9313 3.9420 0.0000 -0.0000 0.0000 -95.8484 9.5545 32.4254 68.8165 -58.2346 -41.7633 -0.0000 0.0000 -14.4362 29.5586 -10.7665 -6.0475 -7.1250 0.0000 -0.0000 1.7364 17.6521 -1.1286 0.0000 -0.0000 0.0000 89.4540 -12.5903 25.4169 -50.7396 53.2895 -26.7659 0.0000 -0.0000 -18.2107 -33.0337 -1.0718 0.6969 7.1250 -0.0000 -0.0000 -5.1574 -31.2336 -1.7419
0.00 0.00 0.00 3.4663 0.5504 22.0909 0.0000 0.0000 0.0000 -30.9679 -13.5554 -42.9386 13.4092 18.9249 70.3916 4.0383 -15.2080 -36.5793 1.2282 7.0286 19.8001 0.0000 0.0000 0.0000 2.8055 1.6271 -54.5175 -21.8494 -19.9178 95.4144 -0.2924 -10.3577 -18.6435 -2.7289 10.2427 -29.7664 -4.2225 0.9481 19.3760 -0.8744 0.2078 0.1587 1.3858 0.2943 -10.7515 -2.3154 -2.6435 -18.9367 2.8455 -3.2300 3.4950 0.9722 -1.4536 4.1311 -0.0000 -0.0000 0.0000 -95.7276 6.4379 38.2145 88.1291 -59.9868 -58.3798 -0.0000 0.0000 -17.2355 28.0275 -10.6955 -5.6422 -7.1250 0.0000 -0.0000 0.6702 17.9031 -0.4318 -0.0000 -0.0000 0.0000 89.2497 -18.1433 23.1235 -49.6503 52.8535 -25.8951 0.0000 -0.0000 -14.8603 -33.3034 0.7233 -0.4752 7.1250 -0.0000 -0.0000 -5.2595 -29.0969 -2.0459
0.00 0.00 0.00 3.5618 0.6546 22.0891 0.0000 0.0000 0.0000 -32.0076 -12.1747 -37.9759 12.8941 18.7436 68.7963 4.1535 -15.3901 -37.1209 0.8414 5.8511 16.3531 0.0000 0.0000 0.0000 0.6414 3.5328 -61.0871 -21.1356 -19.9691 93.3218 -0.3409 -10.7218 -19.5914 -2.8702 10.4819 -30.5517 -4.2570 0.3356 18.9811 -0.4527 -0.5432 0.0175 2.0789 -0.0432 -10.6383 -2.0222 -1.9401 -19.6302 2.1077 -2.2886 3.8260 0.7739 -1.0258 4.3016 -0.0000 0.0000 0.0000 -94.7312 5.1718 42.7909 105.2023 -59.1085 -73.1261 -0.0000 0.0000 -20.4203 26.7691 -10.5767 -5.2902 -7.1250 0.0000 -0.0000 -0.2055 18.1673 0.1312 -0.0000 0.0000 0.0000 88.5402 -21.9705 22.1223 -51.8991 53.7333 -27.6982 0.0000 -0.0000 -14.9144 -33.1903 1.7457 -1.1416 7.1250 -0.0000 -0.0000 -5.1009 -27.8820 -2.1311
0.00 0.00 0.00 3.2789 0.8292 21.7272 0.0000 0.0000 0.0000 -32.7731 -9.6100 -30.4169 11.8863 18.3422 65.6279 3.4162 -15.6071 -33.6498 0.1568 2.5511 7.0315 0.0000 0.0000 0.0000 -2.4888 6.2894 -67.5831 -18.2793 -19.9289 84.9632 -0.3801 -9.7832 -19.0159 -3.3578 11.2529 -33.1376 -3.6078 -0.5794 18.5997 0.4422 -1.4954 -0.0520 2.9459 -0.5019 -10.4240 -1.6906 -0.8708 -20.7497 0.5534 -0.7823 4.6137 0.3674 -0.3819 4.6777 0.0000 -0.0000 0.0000 -92.1903 3.4290 49.3521 126.6753 -54.2515 -91.1486 -0.0000 0.0000 -19.7290 25.4282 -10.6241 -5.0094 -7.1250 0.0000 -0.0000 -1.1526 18.2475 0.7339 0.0000 -0.0000 0.0000 87.2292 -27.1794 20.1988 -57.4248 55.5837 -32.2074 0.0000 -0.0000 -16.0996 -32.9760 2.9661 -1.9229 7.1250 -0.0000 -0.0000 -4.8476 -26.4395 -2.1895
0.00 0.00 0.00 3.0108 0.9293 20.0850 0.0000 0.0000 0.0000 -33.0649 -6.2705 -20.9114 10.8250 17.8484 62.2121 1.3330 -15.9696 -21.9976 0.0512 -1.4605 -4.0168 0.0000 0.0000 0.0000 -7.1215 9.4466 -69.5928 -12.5783 -18.6245 67.8104 -0.3255 -4.2775 -13.2133 -4.8331 13.1934 -40.0966 -2.0873 -1.6828 18.7724 1.4664 -2.5121 0.2508 3.4727 -1.0402 -10.1206 -1.3114 0.4127 -21.8920 -1.8686 1.1344 6.2265 -0.2704 0.3654 5.3620 0.0000 -0.0000 0.0000 -88.9410 1.7990 54.8938 143.2816 -46.0009 -103.9629 -0.0000 0.0000 -13.2470 24.5744 -11.8209 -5.3518 -7.1250 0.0000 -0.0000 -1.8175 17.0237 1.2064 0.0000 -0.0000 0.0000 85.9060 -32.0663 16.1910 -64.8663 57.4731 -38.4183 0.0000 -0.0000 -14.5837 -32.6826 3.9101 -2.5050 7.1250 -0.0000 -0.0000 -4.5543 -25.3355 -2.1739
0.00 0.00 0.00 3.0473 1.0741 18.1242 0.0000 0.0000 0.0000 -33.3976 -5.5433 -12.5864 10.5178 17.6909 61.2054 0.3094 -14.6828 -13.5126 0.0536 -1.4937 -4.1085 0.0000 0.0000 0.0000 -11.7714 11.9946 -66.8239 -7.3865 -15.6489 50.3215 0.0120 -1.9872 -1.1818 -6.0875 14.5126 -45.3320 -0.5178 -2.6849 17.9545 2.1969 -3.4273 0.8620 3.5400 -1.5627 -8.9685 -0.8761 1.4892 -22.3038 -4.2026 2.8202 8.0021 -0.9022 0.9679 6.0546 0.0000 -0.0000 0.0000 -87.6135 1.7745 56.0441 150.2195 -40.7045 -108.7338 -0.0000 0.0000 -14.8901 24.2659 -12.5746 -5.6053 -7.1250 0.0000 -0.0000 -2.0746 16.2368 1.4127 0.0000 -0.0000 0.0000 83.9210 -34.3602 13.1320 -71.9279 58.7292 -44.4159 0.0000 -0.0000 -13.7101 -32.6562 4.1334 -2.6449 7.1250 -0.0000 -0.0000 -4.5171 -25.0729 -2.1837
0.00 0.00 0.00 3.6723 3.7404 12.7685 0.0000 0.0000 0.0000 -35.2852 -9.5918 -6.1919 15.1471 19.4257 75.6794 0.7311 -8.6583 -15.5061 0.0574 -1.5462 -4.2530 0.0000 0.0000 0.0000 -14.1544 12.7531 -58.4483 -6.1669 -14.5882 45.6480 -0.0169 -5.5172 4.3575 -4.8901 13.2590 -40.3459 0.9862 -3.4603 18.1922 3.4491 -4.0327 1.7128 4.1682 -1.9044 -8.1454 -0.5973 1.8957 -20.9457 -7.8405 3.9582 10.5360 -2.0016 1.1542 6.7967 0.0000 -0.0000 0.0000 -88.7586 4.0111 52.7687 143.0978 -46.1236 -103.8305 -0.0000 0.0000 -14.5318 26.5065 -10.5039 -5.1950 -7.1250 0.0000 -0.0000 -0.3858 18.2746 0.2454 0.0000 -0.0000 0.0000 77.8351 -33.2393 11.9840 -84.1096 59.8685 -54.9010 0.0000 -0.0000 -11.8752 -32.9481 5.2541 -3.3965 7.1250 -0.0000 -0.0000 -4.6415 -23.7296 -2.3888
0.00 0.00 0.00 -1.1138 6.3709 8.2372 0.0000 0.0000 0.0000 -27.5445 -10.8671 -14.2790 20.7825 19.9853 92.2884 1.0906 -7.6602 -18.6676 0.0734 -1.7480 -4.8098 0.0000 0.0000 0.0000 -6.7649 11.9637 -51.4786 -9.4031 -17.0603 57.4741 0.0388 -5.2787 -6.1344 -5.4217 13.8435 -42.6142 5.5238 -3.3459 22.0815 4.9349 -2.5063 2.6009 3.0488 -1.2791 -9.5020 -0.1083 1.1390 -20.0657 -8.5991 2.8524 9.9783 -2.4531 0.6149 6.4517 -0.0000 0.0000 0.0000 -90.3526 5.7056 52.0511 131.3458 -52.4381 -94.8966 -0.0000 0.0000 -15.3417 26.7434 -9.5265 -4.7673 -7.1250 0.0000 -0.0000 -0.1586 19.3368 0.0972 -0.0000 0.0000 0.0000 75.2309 -26.4437 14.1314 -85.7015 59.9301 -56.2782 0.0000 -0.0000 -12.1023 -33.5000 5.7739 -3.8096 7.1250 -0.0000 -0.0000 -5.0001 -23.0725 -2.6504
0.00 0.00 0.00 -4.4990 14.4523 6.5390 0.0000 0.0000 0.0000 -3.3729 -15.2809 -53.1785 19.1150 19.9812 87.4116 1.1276 -7.4448 -18.9724 0.0667 -1.6662 -4.5841 0.0000 0.0000 0.0000 4.6510 4.1470 -11.5616 -6.0806 -14.5060 45.3045 0.9211 -19.4562 -18.0198 -6.1590 14.5807 -45.6167 8.7114 -0.3956 21.2995 5.4830 2.1533 1.9407 0.4723 0.8008 -9.7330 -3.3686 -3.8308 -18.2259 -4.1518 -3.7159 10.0467 -1.1733 -2.2840 5.9953 -0.0000 -0.0000 0.0000 -87.5960 19.4410 53.2261 128.2090 -53.6928 -92.3890 -0.0000 0.0000 -13.1901 19.7517 -11.8130 -4.2042 -7.1250 0.0000 -0.0000 -5.1833 17.4824 3.4008 -0.0000 -0.0000 0.0000 68.8321 -12.2516 23.0417 -98.3512 59.7348 -67.2259 0.0000 -0.0000 -6.4617 -32.1253 8.2495 -5.1482 7.1250 -0.0000 -0.0000 -3.7753 -20.2753 -2.2379
0.00 0.00 0.00 -4.2856 15.7304 6.7000 0.0000 0.0000 0.0000 1.8638 -17.0255 -53.6554 14.1239 19.1512 72.5825 0.6152 -6.8147 -14.0612 0.0601 -1.5819 -4.3516 0.0000 0.0000 0.0000 6.9807 3.4547 -2.0726 -4.6315 -12.9564 39.2054 2.3935 -26.1571 -9.0587 -4.0328 12.2039 -36.4570 8.0645 0.2590 19.3818 4.8506 2.5747 1.7226 0.0339 1.0360 -8.8915 -4.4808 -4.9412 -17.5134 -2.3557 -5.2190 10.6933 -0.5756 -2.9145 6.1515 -0.0000 0.0000 0.0000 -87.8775 23.1744 49.5677 130.9216 -52.6170 -94.5600 -0.0000 0.0000 -10.5863 18.6138 -12.1404 -4.0517 -7.1250 0.0000 -0.0000 -5.9833 17.2340 3.9637 -0.0000 0.0000 0.0000 68.0318 -13.8009 25.3574 -99.7935 59.6345 -68.4710 0.0000 -0.0000 -7.1660 -31.8435 8.5050 -5.2482 7.1250 -0.0000 -0.0000 -3.5505 -20.0055 -2.1257
0.00 0.00 0.00 -3.6369 16.9135 7.0443 0.0000 0.0000 0.0000 6.3302 -19.0002 -50.8975 9.1425 16.8985 56.5815 0.1127 -3.8348 -6.1485 0.0696 -1.7014 -4.6812 0.0000 0.0000 0.0000 9.8135 3.4265 4.0744 -4.3042 -12.5546 37.7232 2.4990 -28.2392 -0.7699 -2.3623 9.5832 -27.6373 5.7938 0.7858 16.9986 3.9179 2.4829 1.5557 0.3505 1.0842 -7.8060 -5.5810 -5.8096 -16.8903 0.1028 -6.5275 11.8255 0.2369 -3.3992 6.5441 0.0000 0.0000 0.0000 -87.1195 25.0382 46.1494 132.6607 -51.8644 -95.9350 -0.0000 0.0000 -7.9789 18.6686 -12.6247 -4.2234 -7.1250 0.0000 -0.0000 -5.9539 16.7240 4.0107 0.0000 0.0000 0.0000 68.6422 -16.1761 27.3119 -96.7214 59.8286 -65.8175 0.0000 -0.0000 -8.2070 -31.1506 7.6633 -4.6083 7.1250 -0.0000 -0.0000 -3.1283 -21.0504 -1.7985
